<svg id="Layer_1" data-name="Layer 1" xmlns="http://www.w3.org/2000/svg" viewBox="0 0 554.13 166.55"><path d="M481.77,281.43a3.14,3.14,0,1,1,0,4.45,3.18,3.18,0,0,1,0-4.45Zm.39,4a2.46,2.46,0,0,0,1.82.77,2.63,2.63,0,0,0,2.6-2.59,2.47,2.47,0,0,0-.77-1.81,2.5,2.5,0,0,0-1.83-.77,2.46,2.46,0,0,0-1.82.77,2.57,2.57,0,0,0,0,3.63Zm2.76-3.34a.73.73,0,0,1,.32.62.94.94,0,0,1-.22.64.91.91,0,0,1-.58.32c.15,0,.31.17.48.44s.33.5.45.67a.8.8,0,0,0,.43.33v.06h-.33a1.07,1.07,0,0,1-.78-.22,3.53,3.53,0,0,1-.31-.34,3.18,3.18,0,0,1-.22-.36c-.24-.46-.4-.69-.47-.69v-.06H484a.64.64,0,0,0,.54-.75c0-.42-.24-.63-.68-.63l-.34,0v2.72c0,.2.1.3.28.3h.09v.06h-1.39v-.06h0a.27.27,0,0,0,.31-.27v-2.64c0-.2-.12-.31-.31-.31h0v-.05h1.61A1.29,1.29,0,0,1,484.92,282.13Z" transform="translate(67 -213.87)"/><path d="M15.72,221.66a36.29,36.29,0,0,0-5.88-7.79q-7.5,7.22-18.68,19.26l1,1Q6.32,227.11,15.72,221.66Z" transform="translate(67 -213.87)"/><path d="M9.51,236.54A24.33,24.33,0,0,0,8.4,230q-6.76,2-17.24,5.77l.3.94Q2.15,236.88,9.51,236.54Z" transform="translate(67 -213.87)"/><path d="M202.86,337.7H201a9.18,9.18,0,0,1-6.62-2.72,8.81,8.81,0,0,1-2.8-6.55V246.81a9.24,9.24,0,0,1,2.87-6.47,9.08,9.08,0,0,1,6.55-2.65h1.91v-1.47H170.65v1.47h1.91a9.09,9.09,0,0,1,6.55,2.65,9.24,9.24,0,0,1,2.87,6.47v81.62a10.22,10.22,0,0,1-.42,2.52c-.25-.23-.52-.45-.76-.68q-1.62-1.54-5.44-5.73t-16.47-22.28a52.52,52.52,0,0,0-5.37-6.25A20.18,20.18,0,0,0,148.3,292q10.44,0,17.72-8.6a30.65,30.65,0,0,0,7.28-20.44q0-11.84-7.65-19.27t-21-7.43h-39.7v1.47h1.91a8.89,8.89,0,0,1,6.54,2.73,9.43,9.43,0,0,1,2.87,6.54v16.82a46.19,46.19,0,0,0-9.63-13.36Q92,236.23,68.44,236.22H18.59l.15,1.47H20.5a9.87,9.87,0,0,1,6.55,2.43,7.51,7.51,0,0,1,2.86,6v82.35a9.6,9.6,0,0,1-.93,3.84,18,18,0,0,1-2.3-3.84l-39.41-94.26h-1.33q0,3.22-5.44,15.14l-33.23,79.12a16.84,16.84,0,0,1-5.74,6.91,12.86,12.86,0,0,1-7.21,2.36H-67v1.47h29.56V337.7h-1.32a5.51,5.51,0,0,1-4.64-2A6.21,6.21,0,0,1-44.94,332a11,11,0,0,1,.59-3.46l9.85-25.15H5.21l9.41,25a11.22,11.22,0,0,1,.59,3.53,6.22,6.22,0,0,1-1.55,3.75,5.47,5.47,0,0,1-4.63,2H7.71v1.47H68.44q23.53,0,38.17-14.19a46.23,46.23,0,0,0,9.63-13.37v17a9.18,9.18,0,0,1-2.87,6.47,9.05,9.05,0,0,1-6.54,2.65h-1.91v1.47h32.2L137,337.7h-1.77a9.1,9.1,0,0,1-6.69-2.72,8.92,8.92,0,0,1-2.72-6.55V240.78h9.41q5.29,0,8.83.15a17.16,17.16,0,0,1,13.08,6.47q4.86,6,5.15,15.88v3.31a19.18,19.18,0,0,1-.88,5.52Q156.68,287,138.45,287.4q-2.8.15-4.71.15a25.58,25.58,0,0,1-3.09-.15v1.47q4.71,0,9.41,5,1.62,1.77,3.09,3.61t10.44,14.78q9,12.93,11,15.22a52.19,52.19,0,0,0,4.71,4.7,28.27,28.27,0,0,0,7.61,4.47l.55.24a30.1,30.1,0,0,0,11.76,2.28h13.68ZM-32.73,299l18.53-47.21L3.44,299ZM105,312.33a39.22,39.22,0,0,1-14.71,16.54,40.49,40.49,0,0,1-21.84,5.89h-29V240.64h29q18.68,0,30.23,12.94t11.54,34.12Q110.21,301.66,105,312.33Z" transform="translate(67 -213.87)"/><path d="M478.67,281.59a9.08,9.08,0,0,1,6.55-2.64h1.91v-1.48H454.92V279h1.92a9.08,9.08,0,0,1,6.54,2.64,9.26,9.26,0,0,1,2.87,6.47v50.58A26.3,26.3,0,0,0,463,334q-6.76-7.8-18.38-9.56a22.35,22.35,0,0,0,11.47-7.72q4.71-5.81,4.71-14.64,0-11.16-8.39-17.86t-23.53-6.7H399.63l.14,1.48h1.77a9.33,9.33,0,0,1,6.62,2.64,8.6,8.6,0,0,1,2.79,6.47v81.77a9.79,9.79,0,0,1-.39,2.4c-.26-.24-.53-.47-.78-.71-1.08-1-2.9-2.94-5.44-5.73s-8-10.22-16.48-22.28a51.52,51.52,0,0,0-5.36-6.25,20.18,20.18,0,0,0-5.22-4.05q10.44,0,17.72-8.6a30.65,30.65,0,0,0,7.28-20.44q0-11.84-7.65-19.27t-21-7.43H333.89V279h1.91a8.92,8.92,0,0,1,6.55,2.72,9.47,9.47,0,0,1,2.87,6.54v81.62a9.66,9.66,0,0,1-.84,3.63,18.34,18.34,0,0,1-2.25-3.78l-39.41-94.26h-1.33q0,3.22-5.44,15.14l-24.33,57.92a27.4,27.4,0,0,0-6.4-14.53q-6.77-7.8-18.39-9.56a22.37,22.37,0,0,0,11.48-7.72Q263,310.87,263,302q0-11.16-8.38-17.86t-23.53-6.7H201.83L202,279h1.76a9.31,9.31,0,0,1,6.62,2.64,8.61,8.61,0,0,1,2.8,6.47v81.77a9.22,9.22,0,0,1-2.87,6.47,9.05,9.05,0,0,1-6.55,2.65H202l-.15,1.47H278V379h-1.32a5.51,5.51,0,0,1-4.64-2,6.21,6.21,0,0,1-1.54-3.67,11,11,0,0,1,.59-3.46L281,344.68h39.71l9.41,25a11.22,11.22,0,0,1,.59,3.53,6.27,6.27,0,0,1-1.54,3.75,5.51,5.51,0,0,1-4.64,2h-1.32v1.47H366.1L366,379h-1.76a9.1,9.1,0,0,1-6.69-2.72,8.92,8.92,0,0,1-2.72-6.55V282h9.41c3.53,0,6.47.06,8.82.15a17.21,17.21,0,0,1,13.09,6.47q4.86,6,5.15,15.88v3.31a19.53,19.53,0,0,1-.88,5.52q-4.71,14.85-22.95,15.29c-1.86.1-3.43.15-4.7.15a25.36,25.36,0,0,1-3.09-.15v1.47q4.71,0,9.41,5,1.62,1.77,3.09,3.61t10.44,14.78q9,12.93,11,15.22a52,52,0,0,0,4.7,4.7,28.68,28.68,0,0,0,7.65,4.49l.52.22a30.07,30.07,0,0,0,11.76,2.28h17.35q16.17,0,25.22-7.5a25.81,25.81,0,0,0,5.52-6.24v3a9.52,9.52,0,0,1-2.87,6.55,9,9,0,0,1-6.54,2.72h-1.92v1.47h32.21V379h-1.91a9.18,9.18,0,0,1-6.62-2.72,8.83,8.83,0,0,1-2.79-6.55V288.06A9.2,9.2,0,0,1,478.67,281.59Zm-255.95.59h7.79q10.44,0,16,5.44T252,302.7q0,9.63-4.26,14.48A27.27,27.27,0,0,1,243.3,321a16,16,0,0,1-5.29,2.35,46.36,46.36,0,0,1-5.29,1,30.47,30.47,0,0,1-3.61.29h-1.39V326h.14q17.05,0,25.59,7.05a21.24,21.24,0,0,1,5.37,7.58,27.07,27.07,0,0,1,2.13,11.1q0,11.17-6.17,17.28t-17.36,6.1h-14.7Zm60,58.09,18.53-47.21,17.64,47.21ZM452.57,369q-6.18,6.11-17.35,6.1H420.51V282.18h7.79q10.44,0,16,5.44t5.52,15.08q0,9.63-4.27,14.48A26.8,26.8,0,0,1,441.1,321a16.19,16.19,0,0,1-5.3,2.35,46,46,0,0,1-5.29,1,30.34,30.34,0,0,1-3.6.29h-1.4V326h.15q17.05,0,25.59,7.05a21.35,21.35,0,0,1,5.36,7.58,27.07,27.07,0,0,1,2.14,11.1Q458.75,362.92,452.57,369Z" transform="translate(67 -213.87)"/></svg>